<svg id="Layer_2" data-name="Layer 2" xmlns="http://www.w3.org/2000/svg" viewBox="0 0 63.15 33.77" height="50px" width="80px">
  <defs>
    <style>
      .cls-1, .cls-2 {
        fill: #2f368e;
      }

      .cls-1, .cls-3 {
        fill-rule: evenodd;
      }

      .cls-3 {
        fill: #fbed21;
      }
    </style>
  </defs>
  <g id="Layer_1-2" data-name="Layer 1">
    <g>
      <path class="cls-1" d="M56.03,16.58l-.16-.69c-1.79-.15-3.43,.08-4.86,.61l-2.45-4.61,.28-.6c-.15-.26-.28-.57-.39-.89l-.58,.08-.3-.62,.16-.24c.17-.22-.02-.64-.18-.84l-3.51-.46c-.23-.06-.46-.04-.69,.06l-1.88,.85c-.26,.31,.05,.94,.55,.83l2.18-1.03,2.09,.27-1.67,.84c-.7,.5,.05,1.16,.62,.82l1.42-.76,1.03,1.84h-13.81s-.65-1.44-.65-1.44l2.28-.7c.28-.32,.33-.65-.28-.98-2.03-.25-4.12-.12-6.28,.37-.53,.77,0,1.43,1.58,1.95l1.81-.28,.65,1.3-1.65,3.91c-6.28-2.19-14.52,2.33-12.64,11.59h1.2c1.2,3.72,4.81,6.29,8.86,5.98,3.91-.3,6.99-3.2,7.75-6.86l4.3,.62,.12,.31-.54,.22,.3,1.05,1.49-.41,.73-.19-.33-.98-.5,.07-.06-.26s.13-.11,.14-.12c1.99-1.52,1.43-3.82-.27-4.36l7.58-7.17-.1-.18-.31-.57-8.37,7.85-.37,.03-5.92-9.94h13.53s1.13,2.05,1.13,2.05h0s.31,.57,.31,.57l.77,1.4c-3.86,1.89-5.89,6.17-4.67,11.18l.91-.09c-.01-.06-.01-.11-.02-.16,1.16,3.41,4.36,5.89,8.15,5.89,4.76,0,8.64-3.88,8.64-8.64,0-4.24-3.09-7.76-7.12-8.48Zm-20.86,6.69c-.55-2.07-1.97-3.74-3.82-4.67l.28-.63c2.07,1.03,3.65,2.91,4.23,5.24l-.69,.06Zm-5.87,.54l2.86-4.13c.84,.63,1.54,1.42,2.03,2.37l-3.44,1.64-1.45,.13Zm.15-.91l1.7-3.85c.24,.12,.46,.25,.68,.4l-2.38,3.45Zm1.02-4.16l-1.78,4.01,.28-4.4c.52,.07,1.02,.21,1.5,.39Zm-2.24,4.74c-.09,0-.17-.04-.26-.03-.12,0-.22,.06-.33,.09l-2.6-4.51c.77-.39,1.62-.64,2.53-.71,.33-.03,.65,0,.98,.02l-.33,5.14Zm-3.51-4.25l2.56,4.45c-.17,.1-.33,.22-.46,.37l-4.45-2.57c.59-.92,1.39-1.7,2.35-2.25Zm-2.57,2.57l4.48,2.58c-.08,.15-.13,.31-.16,.48l-5.15-.23c.08-1.02,.36-1.98,.84-2.84Zm-.85,3.23l5.11,.23s0,.01,0,.02c.01,.15,.07,.28,.12,.42l-4.65,2.21c-.31-.69-.53-1.44-.59-2.24-.02-.22,.01-.43,.02-.64Zm5.4,1.02c.09,.14,.19,.28,.32,.39l-2.91,4.21c-.86-.62-1.59-1.42-2.08-2.37l4.68-2.22Zm.66,.58c.2,.1,.42,.16,.66,.17l-.32,5.13c-1.19-.07-2.31-.45-3.27-1.07l2.94-4.24Zm1.07,.14c.19-.04,.37-.09,.52-.19l2.56,4.45c-.86,.5-1.83,.84-2.89,.92-.18,.01-.35-.01-.53-.01l.33-5.17Zm3.41,4.05l-2.58-4.48c.09-.09,.17-.19,.24-.3l4.47,2.58c-.53,.89-1.26,1.63-2.13,2.2Zm2.31-2.55l-3.97-2.29,4.56,.65c-.13,.57-.32,1.12-.59,1.63Zm-2.27-4.69l2.46-1.17c.13,.3,.26,.59,.35,.91l-2.8,.26Zm-3.17,9.55c-4.4,.34-8.27-2.97-8.61-7.38-.34-4.4,2.97-8.27,7.38-8.61,1.14-.09,2.25,.08,3.27,.44l-.27,.63c-.92-.32-1.92-.47-2.95-.39-4.02,.31-7.05,3.84-6.74,7.87,.31,4.02,3.84,7.05,7.86,6.74,3.29-.25,5.88-2.67,6.56-5.74l.69,.1c-.73,3.38-3.57,6.05-7.19,6.33Zm10.58-10.23l-1.84,.17c-.88-3.27-2.85-5.4-5.2-6.51l1.39-3.14,5.65,9.48Zm15.22,10.19c-4.42,0-8.02-3.6-8.02-8.02,0-3.06,1.75-5.7,4.28-7.05l.31,.57,.31-.13c-2.48,1.18-4.21,3.68-4.21,6.6,0,4.03,3.29,7.32,7.33,7.32,4.03,0,7.33-3.29,7.33-7.32s-3.29-7.33-7.33-7.33c-.91,0-1.77,.19-2.58,.49l-.33-.62c.9-.35,1.88-.57,2.91-.57,4.42,0,8.02,3.6,8.02,8.02,0,4.42-3.6,8.02-8.02,8.02Zm-3.1-13.94l2.28,4.47c-.14,.08-.28,.15-.39,.27l-4.15-2.83c.6-.79,1.37-1.44,2.25-1.91Zm-2.49,2.2l4.17,2.85c-.09,.15-.15,.3-.2,.47l-5.01-.61c.15-.99,.5-1.91,1.03-2.71Zm-1.07,3.1l4.97,.6s0,.01,0,.02c0,.15,.05,.29,.09,.44l-4.7,1.81c-.25-.71-.41-1.45-.41-2.24,0-.21,.04-.42,.06-.63Zm5.19,1.42c.08,.15,.16,.29,.28,.41l-3.15,3.89c-.79-.68-1.45-1.51-1.86-2.48l4.72-1.81Zm.61,.63c.2,.12,.41,.2,.65,.23l-.7,4.98c-1.16-.16-2.23-.61-3.12-1.29l3.17-3.91Zm1.04,.23c.19-.02,.37-.06,.53-.13l2.26,4.47c-.9,.45-1.9,.73-2.98,.73-.18,0-.36-.04-.54-.05l.72-5.01Zm3.14,4.15l-2.28-4.5c.11-.09,.2-.19,.29-.3l4.16,2.85c-.57,.8-1.31,1.46-2.17,1.95Zm2.37-2.28l-4.16-2.84c.04-.1,.05-.2,.08-.31l5,.61c-.14,.92-.45,1.77-.92,2.53Zm.96-2.92l-4.97-.6c0-.14-.05-.26-.08-.38l4.71-1.81c.24,.69,.4,1.42,.4,2.19,0,.2-.04,.4-.06,.6Zm-5.17-1.35c-.07-.14-.16-.28-.26-.39l3.16-3.9c.78,.68,1.41,1.51,1.81,2.48l-4.71,1.81Zm-.58-.63c-.09-.06-.17-.14-.27-.18l.72-5.01c1.01,.21,1.93,.67,2.72,1.28l-3.17,3.91Zm-.66-.26c-.09-.01-.16-.05-.26-.05-.03,0-.06,.02-.09,.02l.07-.03-2.34-4.56c.74-.28,1.53-.45,2.36-.45,.33,0,.64,.05,.96,.1l-.7,4.98Z"></path>
      <rect class="cls-2" x="19.17" y="13.86" width="13.16" height=".9" rx=".04" ry=".04"></rect>
      <rect class="cls-2" x="4.32" y="22.58" width="8.05" height=".43" rx=".04" ry=".04"></rect>
      <rect class="cls-2" x="8.66" y="25.18" width="5.9" height=".43" rx=".04" ry=".04"></rect>
      <rect class="cls-2" y="27.88" width="8.64" height=".43" rx=".04" ry=".04"></rect>
      <rect class="cls-2" x="17.42" y="19.65" width="13.08" height=".45" transform="translate(26.79 -11.13) rotate(55.53)"></rect>
      <g>
        <g id="bdujoo">
          <g>
            <rect class="cls-2" x="17.69" y="7.49" width="4.52" height="5.93"></rect>
            <rect class="cls-2" x="23.76" y="7.49" width="4.52" height="5.93"></rect>
            <path class="cls-2" d="M22.38,2.38c.16,.09,1.06,.07,1.24-.04,.23-.14,1.04-1.3,1.48-1.62,.76-.57,2.1-1.22,2.64-.1,.38,.78,.33,1.53-.3,2.15-1.38,1.35-7.37,1.32-8.83,.07-.82-.7-.67-2.69,.44-2.82,1.19-.15,2.34,1.2,3.1,1.97,.11,.11,.18,.36,.23,.39Zm-.17,.88c.46-.52-1.95-2.1-2.47-2.13-.18,0-.46-.02-.57,.14-.76,1.07,2.4,1.87,3.04,1.98Zm1.55,0c.68-.19,2.87-.66,3.08-1.37,.18-.62-.12-.84-.72-.72-.49,.1-2.81,1.58-2.36,2.09Z"></path>
            <polygon class="cls-2" points="22.21 3.96 22.21 6.78 16.7 6.78 16.7 4.17 16.91 3.96 22.21 3.96"></polygon>
            <polygon class="cls-2" points="29.26 3.96 29.26 6.78 23.76 6.78 23.76 4.17 23.97 3.96 29.26 3.96"></polygon>
          </g>
        </g>
        <rect class="cls-2" x="17.69" y="3.96" width="10.58" height="9.45"></rect>
      </g>
      <g>
        <path class="cls-3" d="M25.64,10.71s-.05-.08-.09-.09c-.04-.01-.08-.01-.12,0h-.03s.13,.31,.13,.31h.03s.07-.06,.09-.09c.02-.04,.02-.08,0-.13Zm0,0s-.05-.08-.09-.09c-.04-.01-.08-.01-.12,0h-.03s.13,.31,.13,.31h.03s.07-.06,.09-.09c.02-.04,.02-.08,0-.13Zm-1.83,.4s-.01-.05-.03-.05c-.02,0-.04,0-.06,0,0,0,0,0,0,0,0,0,0,0,0,0h-.01s.02,.14,.02,.14h.01s0,0,0,0c0,0,0,0,0,0,.02,0,.04-.01,.06-.02,.02-.01,.02-.03,.02-.06Zm.5-.09h0s-.02,.19-.02,.19l.12-.02-.09-.17Zm1.33-.31s-.05-.08-.09-.09c-.04-.01-.08-.01-.12,0h-.03s.13,.31,.13,.31h.03s.07-.06,.09-.09c.02-.04,.02-.08,0-.13Zm0,0s-.05-.08-.09-.09c-.04-.01-.08-.01-.12,0h-.03s.13,.31,.13,.31h.03s.07-.06,.09-.09c.02-.04,.02-.08,0-.13Zm-1.33,.31h0s-.02,.19-.02,.19l.12-.02-.09-.17Zm-.5,.09s-.01-.05-.03-.05c-.02,0-.04,0-.06,0,0,0,0,0,0,0,0,0,0,0,0,0h-.01s.02,.14,.02,.14h.01s0,0,0,0c0,0,0,0,0,0,.02,0,.04-.01,.06-.02,.02-.01,.02-.03,.02-.06Zm-.56-.02s-.03,0-.05,0c0,0,0,0,0,0,0,0,0,0,0,0h-.01s0,.11,0,.11h.02s0,0,0,0h0s.04,0,.05-.01c.02,0,.02-.02,.02-.05,0-.02,0-.04-.02-.04Zm.05,.22s-.04-.01-.06-.01c0,0,0,0-.01,0,0,0,0,0-.01,0,0,0,0,0,0,0s0,0,0,0h-.01s0,.12,0,.12h.02s0,0,0,0h0s.01,0,.02,0c0,0,.01,0,.02,0,.02,0,.04,0,.05-.02,.02,0,.02-.02,.02-.05,0-.03-.01-.04-.03-.05Zm.52-.2s-.01-.05-.03-.05c-.02,0-.04,0-.06,0,0,0,0,0,0,0,0,0,0,0,0,0h-.01s.02,.14,.02,.14h.01s0,0,0,0c0,0,0,0,0,0,.02,0,.04-.01,.06-.02,.02-.01,.02-.03,.02-.06Zm.5-.09h0s-.02,.19-.02,.19l.12-.02-.09-.17Zm1.33-.31s-.05-.08-.09-.09c-.04-.01-.08-.01-.12,0h-.03s.13,.31,.13,.31h.03s.07-.06,.09-.09c.02-.04,.02-.08,0-.13Zm0,0s-.05-.08-.09-.09c-.04-.01-.08-.01-.12,0h-.03s.13,.31,.13,.31h.03s.07-.06,.09-.09c.02-.04,.02-.08,0-.13Zm-1.33,.31h0s-.02,.19-.02,.19l.12-.02-.09-.17Zm-.5,.09s-.01-.05-.03-.05c-.02,0-.04,0-.06,0,0,0,0,0,0,0,0,0,0,0,0,0h-.01s.02,.14,.02,.14h.01s0,0,0,0c0,0,0,0,0,0,.02,0,.04-.01,.06-.02,.02-.01,.02-.03,.02-.06Zm-.52,.2s-.04-.01-.06-.01c0,0,0,0-.01,0,0,0,0,0-.01,0,0,0,0,0,0,0s0,0,0,0h-.01s0,.12,0,.12h.02s0,0,0,0h0s.01,0,.02,0c0,0,.01,0,.02,0,.02,0,.04,0,.05-.02,.02,0,.02-.02,.02-.05,0-.03-.01-.04-.03-.05Zm-.05-.22s-.03,0-.05,0c0,0,0,0,0,0,0,0,0,0,0,0h-.01s0,.11,0,.11h.02s0,0,0,0h0s.04,0,.05-.01c.02,0,.02-.02,.02-.05,0-.02,0-.04-.02-.04Zm0,0s-.03,0-.05,0c0,0,0,0,0,0,0,0,0,0,0,0h-.01s0,.11,0,.11h.02s0,0,0,0h0s.04,0,.05-.01c.02,0,.02-.02,.02-.05,0-.02,0-.04-.02-.04Zm.05,.22s-.04-.01-.06-.01c0,0,0,0-.01,0,0,0,0,0-.01,0,0,0,0,0,0,0s0,0,0,0h-.01s0,.12,0,.12h.02s0,0,0,0h0s.01,0,.02,0c0,0,.01,0,.02,0,.02,0,.04,0,.05-.02,.02,0,.02-.02,.02-.05,0-.03-.01-.04-.03-.05Zm.52-.2s-.01-.05-.03-.05c-.02,0-.04,0-.06,0,0,0,0,0,0,0,0,0,0,0,0,0h-.01s.02,.14,.02,.14h.01s0,0,0,0c0,0,0,0,0,0,.02,0,.04-.01,.06-.02,.02-.01,.02-.03,.02-.06Zm.5-.09h0s-.02,.19-.02,.19l.12-.02-.09-.17Zm1.33-.31s-.05-.08-.09-.09c-.04-.01-.08-.01-.12,0h-.03s.13,.31,.13,.31h.03s.07-.06,.09-.09c.02-.04,.02-.08,0-.13Zm0,0s-.05-.08-.09-.09c-.04-.01-.08-.01-.12,0h-.03s.13,.31,.13,.31h.03s.07-.06,.09-.09c.02-.04,.02-.08,0-.13Zm-1.33,.31h0s-.02,.19-.02,.19l.12-.02-.09-.17Zm-.5,.09s-.01-.05-.03-.05c-.02,0-.04,0-.06,0,0,0,0,0,0,0,0,0,0,0,0,0h-.01s.02,.14,.02,.14h.01s0,0,0,0c0,0,0,0,0,0,.02,0,.04-.01,.06-.02,.02-.01,.02-.03,.02-.06Zm-.52,.2s-.04-.01-.06-.01c0,0,0,0-.01,0,0,0,0,0-.01,0,0,0,0,0,0,0s0,0,0,0h-.01s0,.12,0,.12h.02s0,0,0,0h0s.01,0,.02,0c0,0,.01,0,.02,0,.02,0,.04,0,.05-.02,.02,0,.02-.02,.02-.05,0-.03-.01-.04-.03-.05Zm-.05-.22s-.03,0-.05,0c0,0,0,0,0,0,0,0,0,0,0,0h-.01s0,.11,0,.11h.02s0,0,0,0h0s.04,0,.05-.01c.02,0,.02-.02,.02-.05,0-.02,0-.04-.02-.04Zm0,0s-.03,0-.05,0c0,0,0,0,0,0,0,0,0,0,0,0h-.01s0,.11,0,.11h.02s0,0,0,0h0s.04,0,.05-.01c.02,0,.02-.02,.02-.05,0-.02,0-.04-.02-.04Zm.05,.22s-.04-.01-.06-.01c0,0,0,0-.01,0,0,0,0,0-.01,0,0,0,0,0,0,0s0,0,0,0h-.01s0,.12,0,.12h.02s0,0,0,0h0s.01,0,.02,0c0,0,.01,0,.02,0,.02,0,.04,0,.05-.02,.02,0,.02-.02,.02-.05,0-.03-.01-.04-.03-.05Zm.52-.2s-.01-.05-.03-.05c-.02,0-.04,0-.06,0,0,0,0,0,0,0,0,0,0,0,0,0h-.01s.02,.14,.02,.14h.01s0,0,0,0c0,0,0,0,0,0,.02,0,.04-.01,.06-.02,.02-.01,.02-.03,.02-.06Zm.5-.09h0s-.02,.19-.02,.19l.12-.02-.09-.17Zm1.33-.31s-.05-.08-.09-.09c-.04-.01-.08-.01-.12,0h-.03s.13,.31,.13,.31h.03s.07-.06,.09-.09c.02-.04,.02-.08,0-.13Zm0,0s-.05-.08-.09-.09c-.04-.01-.08-.01-.12,0h-.03s.13,.31,.13,.31h.03s.07-.06,.09-.09c.02-.04,.02-.08,0-.13Zm-1.33,.31h0s-.02,.19-.02,.19l.12-.02-.09-.17Zm-.5,.09s-.01-.05-.03-.05c-.02,0-.04,0-.06,0,0,0,0,0,0,0,0,0,0,0,0,0h-.01s.02,.14,.02,.14h.01s0,0,0,0c0,0,0,0,0,0,.02,0,.04-.01,.06-.02,.02-.01,.02-.03,.02-.06Zm-.52,.2s-.04-.01-.06-.01c0,0,0,0-.01,0,0,0,0,0-.01,0,0,0,0,0,0,0s0,0,0,0h-.01s0,.12,0,.12h.02s0,0,0,0h0s.01,0,.02,0c0,0,.01,0,.02,0,.02,0,.04,0,.05-.02,.02,0,.02-.02,.02-.05,0-.03-.01-.04-.03-.05Zm-.05-.22s-.03,0-.05,0c0,0,0,0,0,0,0,0,0,0,0,0h-.01s0,.11,0,.11h.02s0,0,0,0h0s.04,0,.05-.01c.02,0,.02-.02,.02-.05,0-.02,0-.04-.02-.04Zm0,0s-.03,0-.05,0c0,0,0,0,0,0,0,0,0,0,0,0h-.01s0,.11,0,.11h.02s0,0,0,0h0s.04,0,.05-.01c.02,0,.02-.02,.02-.05,0-.02,0-.04-.02-.04Zm.05,.22s-.04-.01-.06-.01c0,0,0,0-.01,0,0,0,0,0-.01,0,0,0,0,0,0,0s0,0,0,0h-.01s0,.12,0,.12h.02s0,0,0,0h0s.01,0,.02,0c0,0,.01,0,.02,0,.02,0,.04,0,.05-.02,.02,0,.02-.02,.02-.05,0-.03-.01-.04-.03-.05Zm.52-.2s-.01-.05-.03-.05c-.02,0-.04,0-.06,0,0,0,0,0,0,0,0,0,0,0,0,0h-.01s.02,.14,.02,.14h.01s0,0,0,0c0,0,0,0,0,0,.02,0,.04-.01,.06-.02,.02-.01,.02-.03,.02-.06Zm.5-.09h0s-.02,.19-.02,.19l.12-.02-.09-.17Zm.31-4.6l-.18,.18,.13,.03,.05-.21h0Zm.52,.39s-.02-.03-.04-.04c-.02,0-.04,0-.05,0-.02,0-.03,.02-.03,.04,0,.02,0,.04,0,.05,0,.02,.02,.03,.04,.03,.02,0,.04,0,.05,0,.02,0,.03-.02,.03-.04,0-.02,0-.04,0-.05Zm.08-.24s-.02-.03-.04-.03c-.02,0-.03,0-.05,0-.02,0-.03,.02-.03,.04,0,.02,0,.03,0,.05,0,.02,.02,.03,.04,.03,.02,0,.03,0,.05,0,.02,0,.03-.02,.03-.04,0-.02,0-.03,0-.05Zm.42,4.14s-.05-.08-.09-.09c-.04-.01-.08-.01-.12,0h-.03s.13,.31,.13,.31h.03s.07-.06,.09-.09c.02-.04,.02-.08,0-.13Zm0,0s-.05-.08-.09-.09c-.04-.01-.08-.01-.12,0h-.03s.13,.31,.13,.31h.03s.07-.06,.09-.09c.02-.04,.02-.08,0-.13Zm-1.33,.31h0s-.02,.19-.02,.19l.12-.02-.09-.17Zm-.5,.09s-.01-.05-.03-.05c-.02,0-.04,0-.06,0,0,0,0,0,0,0,0,0,0,0,0,0h-.01s.02,.14,.02,.14h.01s0,0,0,0c0,0,0,0,0,0,.02,0,.04-.01,.06-.02,.02-.01,.02-.03,.02-.06Zm-.52,.2s-.04-.01-.06-.01c0,0,0,0-.01,0,0,0,0,0-.01,0,0,0,0,0,0,0s0,0,0,0h-.01s0,.12,0,.12h.02s0,0,0,0h0s.01,0,.02,0c0,0,.01,0,.02,0,.02,0,.04,0,.05-.02,.02,0,.02-.02,.02-.05,0-.03-.01-.04-.03-.05Zm-.05-.22s-.03,0-.05,0c0,0,0,0,0,0,0,0,0,0,0,0h-.01s0,.11,0,.11h.02s0,0,0,0h0s.04,0,.05-.01c.02,0,.02-.02,.02-.05,0-.02,0-.04-.02-.04Zm1.38-4.67l-.18,.18,.13,.03,.05-.21h0Zm.6,.15s-.02-.03-.04-.03c-.02,0-.03,0-.05,0-.02,0-.03,.02-.03,.04,0,.02,0,.03,0,.05,0,.02,.02,.03,.04,.03,.02,0,.03,0,.05,0,.02,0,.03-.02,.03-.04,0-.02,0-.03,0-.05Zm-.08,.24s-.02-.03-.04-.04c-.02,0-.04,0-.05,0-.02,0-.03,.02-.03,.04,0,.02,0,.04,0,.05,0,.02,.02,.03,.04,.03,.02,0,.04,0,.05,0,.02,0,.03-.02,.03-.04,0-.02,0-.04,0-.05Zm-1.9,4.28s-.03,0-.05,0c0,0,0,0,0,0,0,0,0,0,0,0h-.01s0,.11,0,.11h.02s0,0,0,0h0s.04,0,.05-.01c.02,0,.02-.02,.02-.05,0-.02,0-.04-.02-.04Zm.05,.22s-.04-.01-.06-.01c0,0,0,0-.01,0,0,0,0,0-.01,0,0,0,0,0,0,0s0,0,0,0h-.01s0,.12,0,.12h.02s0,0,0,0h0s.01,0,.02,0c0,0,.01,0,.02,0,.02,0,.04,0,.05-.02,.02,0,.02-.02,.02-.05,0-.03-.01-.04-.03-.05Zm.52-.2s-.01-.05-.03-.05c-.02,0-.04,0-.06,0,0,0,0,0,0,0,0,0,0,0,0,0h-.01s.02,.14,.02,.14h.01s0,0,0,0c0,0,0,0,0,0,.02,0,.04-.01,.06-.02,.02-.01,.02-.03,.02-.06Zm.27-4.79s-.04-.03-.06-.04c-.03,0-.05,0-.07,.02-.02,.02-.03,.04-.04,.06,0,.03,0,.05,.02,.07,.01,.02,.03,.03,.06,.04,.03,0,.05,0,.07-.02,.02-.02,.03-.04,.04-.06,0-.03,0-.05-.02-.07Zm.24,4.71h0s-.02,.19-.02,.19l.12-.02-.09-.17Zm.31-4.6l-.18,.18,.13,.03,.05-.21h0Zm.52,.39s-.02-.03-.04-.04c-.02,0-.04,0-.05,0-.02,0-.03,.02-.03,.04,0,.02,0,.04,0,.05,0,.02,.02,.03,.04,.03,.02,0,.04,0,.05,0,.02,0,.03-.02,.03-.04,0-.02,0-.04,0-.05Zm.08-.24s-.02-.03-.04-.03c-.02,0-.03,0-.05,0-.02,0-.03,.02-.03,.04,0,.02,0,.03,0,.05,0,.02,.02,.03,.04,.03,.02,0,.03,0,.05,0,.02,0,.03-.02,.03-.04,0-.02,0-.03,0-.05Zm.42,4.14s-.05-.08-.09-.09c-.04-.01-.08-.01-.12,0h-.03s.13,.31,.13,.31h.03s.07-.06,.09-.09c.02-.04,.02-.08,0-.13Zm0,0s-.05-.08-.09-.09c-.04-.01-.08-.01-.12,0h-.03s.13,.31,.13,.31h.03s.07-.06,.09-.09c.02-.04,.02-.08,0-.13Zm-1.33,.31h0s-.02,.19-.02,.19l.12-.02-.09-.17Zm-.5,.09s-.01-.05-.03-.05c-.02,0-.04,0-.06,0,0,0,0,0,0,0,0,0,0,0,0,0h-.01s.02,.14,.02,.14h.01s0,0,0,0c0,0,0,0,0,0,.02,0,.04-.01,.06-.02,.02-.01,.02-.03,.02-.06Zm-.52,.2s-.04-.01-.06-.01c0,0,0,0-.01,0,0,0,0,0-.01,0,0,0,0,0,0,0s0,0,0,0h-.01s0,.12,0,.12h.02s0,0,0,0h0s.01,0,.02,0c0,0,.01,0,.02,0,.02,0,.04,0,.05-.02,.02,0,.02-.02,.02-.05,0-.03-.01-.04-.03-.05Zm-.05-.22s-.03,0-.05,0c0,0,0,0,0,0,0,0,0,0,0,0h-.01s0,.11,0,.11h.02s0,0,0,0h0s.04,0,.05-.01c.02,0,.02-.02,.02-.05,0-.02,0-.04-.02-.04Zm.83-4.78s-.04-.03-.06-.04c-.03,0-.05,0-.07,.02-.02,.02-.03,.04-.04,.06,0,.03,0,.05,.02,.07,.01,.02,.03,.03,.06,.04,.03,0,.05,0,.07-.02,.02-.02,.03-.04,.04-.06,0-.03,0-.05-.02-.07Zm.55,.1l-.18,.18,.13,.03,.05-.21h0Zm.6,.15s-.02-.03-.04-.03c-.02,0-.03,0-.05,0-.02,0-.03,.02-.03,.04,0,.02,0,.03,0,.05,0,.02,.02,.03,.04,.03,.02,0,.03,0,.05,0,.02,0,.03-.02,.03-.04,0-.02,0-.03,0-.05Zm-.08,.24s-.02-.03-.04-.04c-.02,0-.04,0-.05,0-.02,0-.03,.02-.03,.04,0,.02,0,.04,0,.05,0,.02,.02,.03,.04,.03,.02,0,.04,0,.05,0,.02,0,.03-.02,.03-.04,0-.02,0-.04,0-.05Zm-1.9,4.28s-.03,0-.05,0c0,0,0,0,0,0,0,0,0,0,0,0h-.01s0,.11,0,.11h.02s0,0,0,0h0s.04,0,.05-.01c.02,0,.02-.02,.02-.05,0-.02,0-.04-.02-.04Zm.05,.22s-.04-.01-.06-.01c0,0,0,0-.01,0,0,0,0,0-.01,0,0,0,0,0,0,0s0,0,0,0h-.01s0,.12,0,.12h.02s0,0,0,0h0s.01,0,.02,0c0,0,.01,0,.02,0,.02,0,.04,0,.05-.02,.02,0,.02-.02,.02-.05,0-.03-.01-.04-.03-.05Zm.52-.2s-.01-.05-.03-.05c-.02,0-.04,0-.06,0,0,0,0,0,0,0,0,0,0,0,0,0h-.01s.02,.14,.02,.14h.01s0,0,0,0c0,0,0,0,0,0,.02,0,.04-.01,.06-.02,.02-.01,.02-.03,.02-.06Zm.27-4.79s-.04-.03-.06-.04c-.03,0-.05,0-.07,.02-.02,.02-.03,.04-.04,.06,0,.03,0,.05,.02,.07,.01,.02,.03,.03,.06,.04,.03,0,.05,0,.07-.02,.02-.02,.03-.04,.04-.06,0-.03,0-.05-.02-.07Zm.24,4.71h0s-.02,.19-.02,.19l.12-.02-.09-.17Zm.31-4.6l-.18,.18,.13,.03,.05-.21h0Zm.52,.39s-.02-.03-.04-.04c-.02,0-.04,0-.05,0-.02,0-.03,.02-.03,.04,0,.02,0,.04,0,.05,0,.02,.02,.03,.04,.03,.02,0,.04,0,.05,0,.02,0,.03-.02,.03-.04,0-.02,0-.04,0-.05Zm.08-.24s-.02-.03-.04-.03c-.02,0-.03,0-.05,0-.02,0-.03,.02-.03,.04,0,.02,0,.03,0,.05,0,.02,.02,.03,.04,.03,.02,0,.03,0,.05,0,.02,0,.03-.02,.03-.04,0-.02,0-.03,0-.05Zm.42,4.14s-.05-.08-.09-.09c-.04-.01-.08-.01-.12,0h-.03s.13,.31,.13,.31h.03s.07-.06,.09-.09c.02-.04,.02-.08,0-.13Zm0,0s-.05-.08-.09-.09c-.04-.01-.08-.01-.12,0h-.03s.13,.31,.13,.31h.03s.07-.06,.09-.09c.02-.04,.02-.08,0-.13Zm-1.33,.31h0s-.02,.19-.02,.19l.12-.02-.09-.17Zm-.5,.09s-.01-.05-.03-.05c-.02,0-.04,0-.06,0,0,0,0,0,0,0,0,0,0,0,0,0h-.01s.02,.14,.02,.14h.01s0,0,0,0c0,0,0,0,0,0,.02,0,.04-.01,.06-.02,.02-.01,.02-.03,.02-.06Zm-.52,.2s-.04-.01-.06-.01c0,0,0,0-.01,0,0,0,0,0-.01,0,0,0,0,0,0,0s0,0,0,0h-.01s0,.12,0,.12h.02s0,0,0,0h0s.01,0,.02,0c0,0,.01,0,.02,0,.02,0,.04,0,.05-.02,.02,0,.02-.02,.02-.05,0-.03-.01-.04-.03-.05Zm-.05-.22s-.03,0-.05,0c0,0,0,0,0,0,0,0,0,0,0,0h-.01s0,.11,0,.11h.02s0,0,0,0h0s.04,0,.05-.01c.02,0,.02-.02,.02-.05,0-.02,0-.04-.02-.04Zm.83-4.78s-.04-.03-.06-.04c-.03,0-.05,0-.07,.02-.02,.02-.03,.04-.04,.06,0,.03,0,.05,.02,.07,.01,.02,.03,.03,.06,.04,.03,0,.05,0,.07-.02,.02-.02,.03-.04,.04-.06,0-.03,0-.05-.02-.07Zm.55,.1l-.18,.18,.13,.03,.05-.21h0Zm.6,.15s-.02-.03-.04-.03c-.02,0-.03,0-.05,0-.02,0-.03,.02-.03,.04,0,.02,0,.03,0,.05,0,.02,.02,.03,.04,.03,.02,0,.03,0,.05,0,.02,0,.03-.02,.03-.04,0-.02,0-.03,0-.05Zm-.08,.24s-.02-.03-.04-.04c-.02,0-.04,0-.05,0-.02,0-.03,.02-.03,.04,0,.02,0,.04,0,.05,0,.02,.02,.03,.04,.03,.02,0,.04,0,.05,0,.02,0,.03-.02,.03-.04,0-.02,0-.04,0-.05Zm-1.9,4.28s-.03,0-.05,0c0,0,0,0,0,0,0,0,0,0,0,0h-.01s0,.11,0,.11h.02s0,0,0,0h0s.04,0,.05-.01c.02,0,.02-.02,.02-.05,0-.02,0-.04-.02-.04Zm.05,.22s-.04-.01-.06-.01c0,0,0,0-.01,0,0,0,0,0-.01,0,0,0,0,0,0,0s0,0,0,0h-.01s0,.12,0,.12h.02s0,0,0,0h0s.01,0,.02,0c0,0,.01,0,.02,0,.02,0,.04,0,.05-.02,.02,0,.02-.02,.02-.05,0-.03-.01-.04-.03-.05Zm.52-.2s-.01-.05-.03-.05c-.02,0-.04,0-.06,0,0,0,0,0,0,0,0,0,0,0,0,0h-.01s.02,.14,.02,.14h.01s0,0,0,0c0,0,0,0,0,0,.02,0,.04-.01,.06-.02,.02-.01,.02-.03,.02-.06Zm.27-4.79s-.04-.03-.06-.04c-.03,0-.05,0-.07,.02-.02,.02-.03,.04-.04,.06,0,.03,0,.05,.02,.07,.01,.02,.03,.03,.06,.04,.03,0,.05,0,.07-.02,.02-.02,.03-.04,.04-.06,0-.03,0-.05-.02-.07Zm.24,4.71h0s-.02,.19-.02,.19l.12-.02-.09-.17Zm.31-4.6l-.18,.18,.13,.03,.05-.21h0Zm.52,.39s-.02-.03-.04-.04c-.02,0-.04,0-.05,0-.02,0-.03,.02-.03,.04,0,.02,0,.04,0,.05,0,.02,.02,.03,.04,.03,.02,0,.04,0,.05,0,.02,0,.03-.02,.03-.04,0-.02,0-.04,0-.05Zm.08-.24s-.02-.03-.04-.03c-.02,0-.03,0-.05,0-.02,0-.03,.02-.03,.04,0,.02,0,.03,0,.05,0,.02,.02,.03,.04,.03,.02,0,.03,0,.05,0,.02,0,.03-.02,.03-.04,0-.02,0-.03,0-.05Zm.42,4.14s-.05-.08-.09-.09c-.04-.01-.08-.01-.12,0h-.03s.13,.31,.13,.31h.03s.07-.06,.09-.09c.02-.04,.02-.08,0-.13Zm0,0s-.05-.08-.09-.09c-.04-.01-.08-.01-.12,0h-.03s.13,.31,.13,.31h.03s.07-.06,.09-.09c.02-.04,.02-.08,0-.13Zm-1.33,.31h0s-.02,.19-.02,.19l.12-.02-.09-.17Zm-.5,.09s-.01-.05-.03-.05c-.02,0-.04,0-.06,0,0,0,0,0,0,0,0,0,0,0,0,0h-.01s.02,.14,.02,.14h.01s0,0,0,0c0,0,0,0,0,0,.02,0,.04-.01,.06-.02,.02-.01,.02-.03,.02-.06Zm-.52,.2s-.04-.01-.06-.01c0,0,0,0-.01,0,0,0,0,0-.01,0,0,0,0,0,0,0s0,0,0,0h-.01s0,.12,0,.12h.02s0,0,0,0h0s.01,0,.02,0c0,0,.01,0,.02,0,.02,0,.04,0,.05-.02,.02,0,.02-.02,.02-.05,0-.03-.01-.04-.03-.05Zm-.1-.12h0s.04,0,.05-.01c.02,0,.02-.02,.02-.05,0-.02,0-.04-.02-.04-.02,0-.03,0-.05,0,0,0,0,0,0,0,0,0,0,0,0,0h-.01s0,.11,0,.11h.02s0,0,0,0Zm.88-4.88s-.04-.03-.06-.04c-.03,0-.05,0-.07,.02-.02,.02-.03,.04-.04,.06,0,.03,0,.05,.02,.07,.01,.02,.03,.03,.06,.04,.03,0,.05,0,.07-.02,.02-.02,.03-.04,.04-.06,0-.03,0-.05-.02-.07Zm.55,.1l-.18,.18,.13,.03,.05-.21h0Zm.6,.15s-.02-.03-.04-.03c-.02,0-.03,0-.05,0-.02,0-.03,.02-.03,.04,0,.02,0,.03,0,.05,0,.02,.02,.03,.04,.03,.02,0,.03,0,.05,0,.02,0,.03-.02,.03-.04,0-.02,0-.03,0-.05Zm-.12,.2s-.04,0-.05,0c-.02,0-.03,.02-.03,.04,0,.02,0,.04,0,.05,0,.02,.02,.03,.04,.03,.02,0,.04,0,.05,0,.02,0,.03-.02,.03-.04,0-.02,0-.04,0-.05,0-.02-.02-.03-.04-.04Zm-2.19-.83c-2.61,0-4.73,1.3-4.73,2.9s2.13,2.9,4.73,2.9,4.73-1.3,4.73-2.9-2.13-2.9-4.73-2.9Zm1.95,.84s.03-.06,.06-.08c.03-.02,.06-.03,.09-.03h0s-.04-.04-.05-.07c0-.03,0-.06,0-.08,.02-.05,.05-.08,.1-.1,.05-.01,.09-.01,.14,0h0s.08,.04,.11,.08c.03,.04,.04,.08,.02,.13,0,.03-.03,.05-.05,.07-.02,.02-.05,.03-.08,.03h0s.05,.05,.06,.08c.01,.03,.01,.06,0,.1-.02,.05-.05,.08-.09,.09-.04,.01-.09,.02-.13,.01,0,0-.02,0-.02,0,0,0-.01,0-.02,0s-.01,0-.02,0c0,0-.01,0-.02-.01-.04-.02-.07-.05-.1-.09-.03-.04-.03-.08-.01-.13Zm-.57-.21l.3-.3,.19,.05-.08,.33,.07,.02-.03,.11-.07-.02-.03,.11-.13-.03,.03-.11-.27-.06,.02-.09Zm-.54-.25c.01-.07,.04-.12,.1-.15,.05-.03,.11-.04,.18-.03,0,0,.02,0,.02,0s.02,0,.03,0c.02,0,.04,.01,.06,.02,.02,.01,.03,.02,.05,.04,.02,.02,.03,.05,.04,.07,0,.03,.01,.06,0,.09,0,0,0,0,0,0s0,0,0,0c0,.04-.02,.08-.04,.11-.02,.04-.05,.07-.08,.1l-.14,.14-.17-.03,.19-.17h0s0,0,0,0c0,0,0,0,0,0-.01,0-.02,0-.03,0-.01,0-.02,0-.03,0-.06,0-.1-.04-.12-.08-.03-.05-.04-.09-.03-.15Zm-.47-.23l.23,.02-.04,.57h-.15s.03-.45,.03-.45h-.08s0-.13,0-.13Zm-.53,0v.13s-.17,0-.17,0v.09s.17,0,.17,0v.13s-.16,0-.16,0v.1s.18,0,.18,0v.13s-.32,.01-.32,.01l-.02-.57h.32Zm-.9,.23s.03-.07,.05-.1c.02-.03,.05-.06,.09-.08,.03-.02,.07-.03,.11-.04,0,0,0,0,0,0,0,0,0,0,0,0,.02,0,.05,0,.07,0,.02,0,.05,0,.07,.01l.02,.18s-.04-.03-.06-.04c-.02,0-.05,0-.07,0-.05,0-.08,.03-.1,.06-.02,.03-.03,.07-.03,.12,0,.04,.02,.08,.06,.11,.03,.03,.07,.04,.12,.03,.02,0,.05-.01,.07-.02,.02-.01,.04-.03,.05-.05l.02,.18s-.03,.01-.04,.02c-.01,0-.02,0-.03,.01,0,0-.02,0-.03,0,0,0-.02,0-.03,0-.04,0-.08,0-.12,0-.04,0-.07-.03-.11-.05-.03-.02-.06-.05-.08-.09-.02-.03-.03-.07-.04-.11,0-.04,0-.08,0-.11Zm-.61-.06l.34,.29h0s-.07-.34-.07-.34l.14-.03,.12,.56-.14,.03-.34-.29h0s.07,.34,.07,.34l-.14,.03-.12-.56,.14-.03Zm-.33,.09l.16,.54-.14,.04-.17-.54,.14-.04Zm-.59,.24s.06-.08,.11-.1c.01,0,.02,0,.03-.01s.02,0,.04,0c.02,0,.04,0,.06,0,.02,0,.04,0,.05,0l-.02,.13s-.03,0-.05,0c-.02,0-.04,0-.05,0,0,0,0,0,0,0,0,0,0,0,0,0-.01,0-.02,.01-.02,.03,0,.01,0,.02,0,.03,0,.01,.01,.02,.02,.02,.01,0,.02,0,.03,0h.01s0,0,.01,0h.04s.08,0,.11,.01c.03,.01,.06,.04,.07,.08,0,0,0,0,0,0,0,0,0,0,0,0,0,.02,.01,.05,.01,.08,0,.03,0,.05-.02,.08-.01,.02-.03,.04-.05,.06-.02,.02-.04,.03-.06,.04,0,0,0,0-.01,0,0,0,0,0-.01,0-.03,.01-.07,.02-.1,.02-.04,0-.07,0-.11-.01l.02-.13s.05,.02,.07,.02c.02,0,.05,0,.07,0,0,0,0,0,0,0,0,0,0,0,0,0,.02,0,.03-.02,.04-.03,0-.01,.01-.03,0-.05,0-.01-.01-.02-.03-.03s-.03,0-.04,0c0,0-.01,0-.02,0,0,0-.01,0-.02,0,0,0,0,0,0,0,0,0,0,0,0,0-.05,0-.09,0-.12,0-.03,0-.06-.04-.08-.09-.02-.05-.02-.1,0-.15Zm.49,4.24s-.02-.05-.04-.06c-.02-.02-.04-.03-.06-.04-.04-.02-.08-.02-.12,0-.04,.02-.06,.05-.08,.09-.02,.04-.02,.08,0,.12,.02,.04,.05,.06,.09,.08,.02,0,.05,.01,.07,.01,.03,0,.05,0,.07-.02l-.06,.16s-.03,0-.04,0c-.01,0-.02,0-.04,0,0,0-.02,0-.03,0,0,0-.02,0-.03,0-.04-.01-.07-.04-.1-.06-.03-.03-.05-.06-.07-.09-.02-.04-.03-.08-.03-.12,0-.04,0-.08,.02-.12,.01-.04,.03-.07,.06-.1,.03-.03,.06-.05,.09-.07,.04-.02,.07-.02,.11-.03,.04,0,.08,0,.12,.02,0,0,0,0,0,0,0,0,0,0,0,0,.02,0,.04,.02,.06,.03,.02,.01,.04,.03,.05,.04l-.06,.16Zm.3,.48l-.14-.04,.07-.26-.13-.34,.17,.05,.06,.18,.14-.12,.17,.05-.28,.23-.07,.26Zm.72-.24s-.03-.04-.05-.06c-.02-.01-.04-.02-.07-.03-.04,0-.08,0-.12,.03-.03,.03-.05,.06-.06,.1,0,.04,0,.08,.02,.12,.02,.03,.06,.05,.1,.06,.02,0,.05,0,.07,0,.02,0,.05-.02,.06-.03l-.03,.17s-.03,0-.04,0c-.01,0-.02,0-.04,0,0,0-.02,0-.03,0,0,0-.02,0-.03,0-.04,0-.08-.02-.11-.04-.03-.02-.06-.05-.09-.08-.03-.03-.04-.07-.05-.11,0-.04,0-.08,0-.12,0-.04,.02-.07,.04-.11,.02-.03,.05-.06,.08-.08,.03-.02,.07-.04,.11-.05,.04,0,.08-.01,.12,0,0,0,0,0,0,0,0,0,0,0,0,0,.02,0,.05,.01,.07,.02,.02,0,.04,.02,.06,.03l-.03,.17Zm.39,.43l-.32-.04,.07-.56,.15,.02-.05,.44,.18,.02-.02,.12Zm.44-.42h-.18s0,.08,0,.08h.17s0,.13,0,.13h-.17s0,.09,0,.09h.18s0,.14,0,.14l-.32-.02,.03-.57,.32,.02v.12Zm.73,.4s-.09,.04-.14,.04h-.23s-.02-.56-.02-.56h.21c.05,0,.09,0,.12,.02,.03,.02,.05,.06,.05,.11,0,.03,0,.05-.01,.07,0,.02-.02,.04-.05,.05h0s.07,.02,.09,.04c.02,.03,.03,.06,.03,.1,0,.06-.02,.1-.06,.13Zm.47-.01l-.17-.2h0s.03,.22,.03,.22l-.15,.02-.07-.56,.22-.03c.06,0,.1,0,.15,.02,.04,.02,.07,.06,.07,.13,0,.04,0,.07-.02,.11-.02,.03-.05,.06-.08,.07l.21,.21-.18,.02Zm.64-.11l-.06-.09-.2,.04-.02,.1-.15,.03,.1-.6,.16-.03,.32,.52-.15,.03Zm.64-.18l-.36-.26h0s.1,.33,.1,.33l-.14,.04-.16-.55,.14-.04,.36,.26h0s-.1-.33-.1-.33l.14-.04,.16,.55-.14,.04Zm.62-.34c-.03,.07-.08,.13-.15,.16l-.19,.08-.23-.52,.19-.08c.07-.03,.15-.03,.22,0,.07,.03,.13,.08,.16,.15,.03,.07,.03,.15,0,.22Zm-2.86-.03c-2.09,0-3.8-.9-3.8-2.01s1.71-2.01,3.8-2.01,3.8,.9,3.8,2.01-1.71,2.01-3.8,2.01Zm2.63-.21s-.08-.01-.12,0h-.03s.13,.31,.13,.31h.03s.07-.06,.09-.09c.02-.04,.02-.08,0-.13-.02-.05-.05-.08-.09-.09Zm-.41-3.96s.03,0,.05,0c.02,0,.03-.02,.03-.04,0-.02,0-.03,0-.05,0-.02-.02-.03-.04-.03-.02,0-.03,0-.05,0-.02,0-.03,.02-.03,.04,0,.02,0,.03,0,.05,0,.02,.02,.03,.04,.03Zm-.08,.25s.04,0,.05,0c.02,0,.03-.02,.03-.04,0-.02,0-.04,0-.05,0-.02-.02-.03-.04-.04-.02,0-.04,0-.05,0-.02,0-.03,.02-.03,.04,0,.02,0,.04,0,.05,0,.02,.02,.03,.04,.03Zm-.44-.49h0s-.18,.18-.18,.18l.13,.03,.05-.21Zm-.32,4.6l-.02,.19,.12-.02-.09-.17h0Zm-.32-4.56s.05,0,.07-.02c.02-.02,.03-.04,.04-.06,0-.03,0-.05-.02-.07-.02-.02-.04-.03-.06-.04-.03,0-.05,0-.07,.02-.02,.02-.03,.04-.04,.06,0,.03,0,.05,.02,.07,.01,.02,.03,.03,.06,.04Zm-.21,4.59s-.04,0-.06,0c0,0,0,0,0,0,0,0,0,0,0,0h-.01s.02,.14,.02,.14h.01s0,0,0,0c0,0,0,0,0,0,.02,0,.04-.01,.06-.02,.02-.01,.02-.03,.02-.06,0-.03-.01-.05-.03-.05Zm-.49,.26s-.04-.01-.06-.01c0,0,0,0-.01,0,0,0,0,0-.01,0,0,0,0,0,0,0s0,0,0,0h-.01s0,.12,0,.12h.02s0,0,0,0h0s.01,0,.02,0c0,0,.01,0,.02,0,.02,0,.04,0,.05-.02,.02,0,.02-.02,.02-.05,0-.03-.01-.04-.03-.05Zm-.1-.12h0s.04,0,.05-.01c.02,0,.02-.02,.02-.05,0-.02,0-.04-.02-.04-.02,0-.03,0-.05,0,0,0,0,0,0,0,0,0,0,0,0,0h-.01s0,.11,0,.11h.02s0,0,0,0Zm1.95-4.38s-.02-.03-.04-.04c-.02,0-.04,0-.05,0-.02,0-.03,.02-.03,.04,0,.02,0,.04,0,.05,0,.02,.02,.03,.04,.03,.02,0,.04,0,.05,0,.02,0,.03-.02,.03-.04,0-.02,0-.04,0-.05Zm.08-.24s-.02-.03-.04-.03c-.02,0-.03,0-.05,0-.02,0-.03,.02-.03,.04,0,.02,0,.03,0,.05,0,.02,.02,.03,.04,.03,.02,0,.03,0,.05,0,.02,0,.03-.02,.03-.04,0-.02,0-.03,0-.05Zm-.6-.15l-.18,.18,.13,.03,.05-.21h0Zm-.55-.1s-.04-.03-.06-.04c-.03,0-.05,0-.07,.02-.02,.02-.03,.04-.04,.06,0,.03,0,.05,.02,.07,.01,.02,.03,.03,.06,.04,.03,0,.05,0,.07-.02,.02-.02,.03-.04,.04-.06,0-.03,0-.05-.02-.07Zm-.83,4.78s-.03,0-.05,0c0,0,0,0,0,0,0,0,0,0,0,0h-.01s0,.11,0,.11h.02s0,0,0,0h0s.04,0,.05-.01c.02,0,.02-.02,.02-.05,0-.02,0-.04-.02-.04Zm.05,.22s-.04-.01-.06-.01c0,0,0,0-.01,0,0,0,0,0-.01,0,0,0,0,0,0,0s0,0,0,0h-.01s0,.12,0,.12h.02s0,0,0,0h0s.01,0,.02,0c0,0,.01,0,.02,0,.02,0,.04,0,.05-.02,.02,0,.02-.02,.02-.05,0-.03-.01-.04-.03-.05Zm.52-.2s-.01-.05-.03-.05c-.02,0-.04,0-.06,0,0,0,0,0,0,0,0,0,0,0,0,0h-.01s.02,.14,.02,.14h.01s0,0,0,0c0,0,0,0,0,0,.02,0,.04-.01,.06-.02,.02-.01,.02-.03,.02-.06Zm.5-.09h0s-.02,.19-.02,.19l.12-.02-.09-.17Zm1.33-.31s-.05-.08-.09-.09c-.04-.01-.08-.01-.12,0h-.03s.13,.31,.13,.31h.03s.07-.06,.09-.09c.02-.04,.02-.08,0-.13Zm0,0s-.05-.08-.09-.09c-.04-.01-.08-.01-.12,0h-.03s.13,.31,.13,.31h.03s.07-.06,.09-.09c.02-.04,.02-.08,0-.13Zm-.42-4.14s-.02-.03-.04-.03c-.02,0-.03,0-.05,0-.02,0-.03,.02-.03,.04,0,.02,0,.03,0,.05,0,.02,.02,.03,.04,.03,.02,0,.03,0,.05,0,.02,0,.03-.02,.03-.04,0-.02,0-.03,0-.05Zm-.08,.24s-.02-.03-.04-.04c-.02,0-.04,0-.05,0-.02,0-.03,.02-.03,.04,0,.02,0,.04,0,.05,0,.02,.02,.03,.04,.03,.02,0,.04,0,.05,0,.02,0,.03-.02,.03-.04,0-.02,0-.04,0-.05Zm-.52-.39l-.18,.18,.13,.03,.05-.21h0Zm-.31,4.6h0s-.02,.19-.02,.19l.12-.02-.09-.17Zm-.24-4.71s-.04-.03-.06-.04c-.03,0-.05,0-.07,.02-.02,.02-.03,.04-.04,.06,0,.03,0,.05,.02,.07,.01,.02,.03,.03,.06,.04,.03,0,.05,0,.07-.02,.02-.02,.03-.04,.04-.06,0-.03,0-.05-.02-.07Zm-.27,4.79s-.01-.05-.03-.05c-.02,0-.04,0-.06,0,0,0,0,0,0,0,0,0,0,0,0,0h-.01s.02,.14,.02,.14h.01s0,0,0,0c0,0,0,0,0,0,.02,0,.04-.01,.06-.02,.02-.01,.02-.03,.02-.06Zm-.52,.2s-.04-.01-.06-.01c0,0,0,0-.01,0,0,0,0,0-.01,0,0,0,0,0,0,0s0,0,0,0h-.01s0,.12,0,.12h.02s0,0,0,0h0s.01,0,.02,0c0,0,.01,0,.02,0,.02,0,.04,0,.05-.02,.02,0,.02-.02,.02-.05,0-.03-.01-.04-.03-.05Zm-.05-.22s-.03,0-.05,0c0,0,0,0,0,0,0,0,0,0,0,0h-.01s0,.11,0,.11h.02s0,0,0,0h0s.04,0,.05-.01c.02,0,.02-.02,.02-.05,0-.02,0-.04-.02-.04Zm1.9-4.28s-.02-.03-.04-.04c-.02,0-.04,0-.05,0-.02,0-.03,.02-.03,.04,0,.02,0,.04,0,.05,0,.02,.02,.03,.04,.03,.02,0,.04,0,.05,0,.02,0,.03-.02,.03-.04,0-.02,0-.04,0-.05Zm.08-.24s-.02-.03-.04-.03c-.02,0-.03,0-.05,0-.02,0-.03,.02-.03,.04,0,.02,0,.03,0,.05,0,.02,.02,.03,.04,.03,.02,0,.03,0,.05,0,.02,0,.03-.02,.03-.04,0-.02,0-.03,0-.05Zm-.6-.15l-.18,.18,.13,.03,.05-.21h0Zm-.55-.1s-.04-.03-.06-.04c-.03,0-.05,0-.07,.02-.02,.02-.03,.04-.04,.06,0,.03,0,.05,.02,.07,.01,.02,.03,.03,.06,.04,.03,0,.05,0,.07-.02,.02-.02,.03-.04,.04-.06,0-.03,0-.05-.02-.07Zm-.83,4.78s-.03,0-.05,0c0,0,0,0,0,0,0,0,0,0,0,0h-.01s0,.11,0,.11h.02s0,0,0,0h0s.04,0,.05-.01c.02,0,.02-.02,.02-.05,0-.02,0-.04-.02-.04Zm.05,.22s-.04-.01-.06-.01c0,0,0,0-.01,0,0,0,0,0-.01,0,0,0,0,0,0,0s0,0,0,0h-.01s0,.12,0,.12h.02s0,0,0,0h0s.01,0,.02,0c0,0,.01,0,.02,0,.02,0,.04,0,.05-.02,.02,0,.02-.02,.02-.05,0-.03-.01-.04-.03-.05Zm.52-.2s-.01-.05-.03-.05c-.02,0-.04,0-.06,0,0,0,0,0,0,0,0,0,0,0,0,0h-.01s.02,.14,.02,.14h.01s0,0,0,0c0,0,0,0,0,0,.02,0,.04-.01,.06-.02,.02-.01,.02-.03,.02-.06Zm.5-.09h0s-.02,.19-.02,.19l.12-.02-.09-.17Zm1.33-.31s-.05-.08-.09-.09c-.04-.01-.08-.01-.12,0h-.03s.13,.31,.13,.31h.03s.07-.06,.09-.09c.02-.04,.02-.08,0-.13Zm0,0s-.05-.08-.09-.09c-.04-.01-.08-.01-.12,0h-.03s.13,.31,.13,.31h.03s.07-.06,.09-.09c.02-.04,.02-.08,0-.13Zm-.42-4.14s-.02-.03-.04-.03c-.02,0-.03,0-.05,0-.02,0-.03,.02-.03,.04,0,.02,0,.03,0,.05,0,.02,.02,.03,.04,.03,.02,0,.03,0,.05,0,.02,0,.03-.02,.03-.04,0-.02,0-.03,0-.05Zm-.08,.24s-.02-.03-.04-.04c-.02,0-.04,0-.05,0-.02,0-.03,.02-.03,.04,0,.02,0,.04,0,.05,0,.02,.02,.03,.04,.03,.02,0,.04,0,.05,0,.02,0,.03-.02,.03-.04,0-.02,0-.04,0-.05Zm-.52-.39l-.18,.18,.13,.03,.05-.21h0Zm-.31,4.6h0s-.02,.19-.02,.19l.12-.02-.09-.17Zm-.24-4.71s-.04-.03-.06-.04c-.03,0-.05,0-.07,.02-.02,.02-.03,.04-.04,.06,0,.03,0,.05,.02,.07,.01,.02,.03,.03,.06,.04,.03,0,.05,0,.07-.02,.02-.02,.03-.04,.04-.06,0-.03,0-.05-.02-.07Zm-.27,4.79s-.01-.05-.03-.05c-.02,0-.04,0-.06,0,0,0,0,0,0,0,0,0,0,0,0,0h-.01s.02,.14,.02,.14h.01s0,0,0,0c0,0,0,0,0,0,.02,0,.04-.01,.06-.02,.02-.01,.02-.03,.02-.06Zm-.52,.2s-.04-.01-.06-.01c0,0,0,0-.01,0,0,0,0,0-.01,0,0,0,0,0,0,0s0,0,0,0h-.01s0,.12,0,.12h.02s0,0,0,0h0s.01,0,.02,0c0,0,.01,0,.02,0,.02,0,.04,0,.05-.02,.02,0,.02-.02,.02-.05,0-.03-.01-.04-.03-.05Zm-.05-.22s-.03,0-.05,0c0,0,0,0,0,0,0,0,0,0,0,0h-.01s0,.11,0,.11h.02s0,0,0,0h0s.04,0,.05-.01c.02,0,.02-.02,.02-.05,0-.02,0-.04-.02-.04Zm1.9-4.28s-.02-.03-.04-.04c-.02,0-.04,0-.05,0-.02,0-.03,.02-.03,.04,0,.02,0,.04,0,.05,0,.02,.02,.03,.04,.03,.02,0,.04,0,.05,0,.02,0,.03-.02,.03-.04,0-.02,0-.04,0-.05Zm.08-.24s-.02-.03-.04-.03c-.02,0-.03,0-.05,0-.02,0-.03,.02-.03,.04,0,.02,0,.03,0,.05,0,.02,.02,.03,.04,.03,.02,0,.03,0,.05,0,.02,0,.03-.02,.03-.04,0-.02,0-.03,0-.05Zm-.6-.15l-.18,.18,.13,.03,.05-.21h0Zm-.55-.1s-.04-.03-.06-.04c-.03,0-.05,0-.07,.02-.02,.02-.03,.04-.04,.06,0,.03,0,.05,.02,.07,.01,.02,.03,.03,.06,.04,.03,0,.05,0,.07-.02,.02-.02,.03-.04,.04-.06,0-.03,0-.05-.02-.07Zm-.83,4.78s-.03,0-.05,0c0,0,0,0,0,0,0,0,0,0,0,0h-.01s0,.11,0,.11h.02s0,0,0,0h0s.04,0,.05-.01c.02,0,.02-.02,.02-.05,0-.02,0-.04-.02-.04Zm.05,.22s-.04-.01-.06-.01c0,0,0,0-.01,0,0,0,0,0-.01,0,0,0,0,0,0,0s0,0,0,0h-.01s0,.12,0,.12h.02s0,0,0,0h0s.01,0,.02,0c0,0,.01,0,.02,0,.02,0,.04,0,.05-.02,.02,0,.02-.02,.02-.05,0-.03-.01-.04-.03-.05Zm.52-.2s-.01-.05-.03-.05c-.02,0-.04,0-.06,0,0,0,0,0,0,0,0,0,0,0,0,0h-.01s.02,.14,.02,.14h.01s0,0,0,0c0,0,0,0,0,0,.02,0,.04-.01,.06-.02,.02-.01,.02-.03,.02-.06Zm.5-.09h0s-.02,.19-.02,.19l.12-.02-.09-.17Zm1.33-.31s-.05-.08-.09-.09c-.04-.01-.08-.01-.12,0h-.03s.13,.31,.13,.31h.03s.07-.06,.09-.09c.02-.04,.02-.08,0-.13Zm0,0s-.05-.08-.09-.09c-.04-.01-.08-.01-.12,0h-.03s.13,.31,.13,.31h.03s.07-.06,.09-.09c.02-.04,.02-.08,0-.13Zm-.42-4.14s-.02-.03-.04-.03c-.02,0-.03,0-.05,0-.02,0-.03,.02-.03,.04,0,.02,0,.03,0,.05,0,.02,.02,.03,.04,.03,.02,0,.03,0,.05,0,.02,0,.03-.02,.03-.04,0-.02,0-.03,0-.05Zm-.08,.24s-.02-.03-.04-.04c-.02,0-.04,0-.05,0-.02,0-.03,.02-.03,.04,0,.02,0,.04,0,.05,0,.02,.02,.03,.04,.03,.02,0,.04,0,.05,0,.02,0,.03-.02,.03-.04,0-.02,0-.04,0-.05Zm-.52-.39l-.18,.18,.13,.03,.05-.21h0Zm-.31,4.6h0s-.02,.19-.02,.19l.12-.02-.09-.17Zm-.24-4.71s-.04-.03-.06-.04c-.03,0-.05,0-.07,.02-.02,.02-.03,.04-.04,.06,0,.03,0,.05,.02,.07,.01,.02,.03,.03,.06,.04,.03,0,.05,0,.07-.02,.02-.02,.03-.04,.04-.06,0-.03,0-.05-.02-.07Zm-.27,4.79s-.01-.05-.03-.05c-.02,0-.04,0-.06,0,0,0,0,0,0,0,0,0,0,0,0,0h-.01s.02,.14,.02,.14h.01s0,0,0,0c0,0,0,0,0,0,.02,0,.04-.01,.06-.02,.02-.01,.02-.03,.02-.06Zm-.52,.2s-.04-.01-.06-.01c0,0,0,0-.01,0,0,0,0,0-.01,0,0,0,0,0,0,0s0,0,0,0h-.01s0,.12,0,.12h.02s0,0,0,0h0s.01,0,.02,0c0,0,.01,0,.02,0,.02,0,.04,0,.05-.02,.02,0,.02-.02,.02-.05,0-.03-.01-.04-.03-.05Zm-.05-.22s-.03,0-.05,0c0,0,0,0,0,0,0,0,0,0,0,0h-.01s0,.11,0,.11h.02s0,0,0,0h0s.04,0,.05-.01c.02,0,.02-.02,.02-.05,0-.02,0-.04-.02-.04Zm1.9-4.28s-.02-.03-.04-.04c-.02,0-.04,0-.05,0-.02,0-.03,.02-.03,.04,0,.02,0,.04,0,.05,0,.02,.02,.03,.04,.03,.02,0,.04,0,.05,0,.02,0,.03-.02,.03-.04,0-.02,0-.04,0-.05Zm.08-.24s-.02-.03-.04-.03c-.02,0-.03,0-.05,0-.02,0-.03,.02-.03,.04,0,.02,0,.03,0,.05,0,.02,.02,.03,.04,.03,.02,0,.03,0,.05,0,.02,0,.03-.02,.03-.04,0-.02,0-.03,0-.05Zm-1.98,4.52s-.03,0-.05,0c0,0,0,0,0,0,0,0,0,0,0,0h-.01s0,.11,0,.11h.02s0,0,0,0h0s.04,0,.05-.01c.02,0,.02-.02,.02-.05,0-.02,0-.04-.02-.04Zm.05,.22s-.04-.01-.06-.01c0,0,0,0-.01,0,0,0,0,0-.01,0,0,0,0,0,0,0s0,0,0,0h-.01s0,.12,0,.12h.02s0,0,0,0h0s.01,0,.02,0c0,0,.01,0,.02,0,.02,0,.04,0,.05-.02,.02,0,.02-.02,.02-.05,0-.03-.01-.04-.03-.05Zm.52-.2s-.01-.05-.03-.05c-.02,0-.04,0-.06,0,0,0,0,0,0,0,0,0,0,0,0,0h-.01s.02,.14,.02,.14h.01s0,0,0,0c0,0,0,0,0,0,.02,0,.04-.01,.06-.02,.02-.01,.02-.03,.02-.06Zm.5-.09h0s-.02,.19-.02,.19l.12-.02-.09-.17Zm1.33-.31s-.05-.08-.09-.09c-.04-.01-.08-.01-.12,0h-.03s.13,.31,.13,.31h.03s.07-.06,.09-.09c.02-.04,.02-.08,0-.13Zm0,0s-.05-.08-.09-.09c-.04-.01-.08-.01-.12,0h-.03s.13,.31,.13,.31h.03s.07-.06,.09-.09c.02-.04,.02-.08,0-.13Zm-.42-4.14s-.02-.03-.04-.03c-.02,0-.03,0-.05,0-.02,0-.03,.02-.03,.04,0,.02,0,.03,0,.05,0,.02,.02,.03,.04,.03,.02,0,.03,0,.05,0,.02,0,.03-.02,.03-.04,0-.02,0-.03,0-.05Zm-.08,.24s-.02-.03-.04-.04c-.02,0-.04,0-.05,0-.02,0-.03,.02-.03,.04,0,.02,0,.04,0,.05,0,.02,.02,.03,.04,.03,.02,0,.04,0,.05,0,.02,0,.03-.02,.03-.04,0-.02,0-.04,0-.05Zm-.83,4.21h0s-.02,.19-.02,.19l.12-.02-.09-.17Zm-.5,.09s-.01-.05-.03-.05c-.02,0-.04,0-.06,0,0,0,0,0,0,0,0,0,0,0,0,0h-.01s.02,.14,.02,.14h.01s0,0,0,0c0,0,0,0,0,0,.02,0,.04-.01,.06-.02,.02-.01,.02-.03,.02-.06Zm-.52,.2s-.04-.01-.06-.01c0,0,0,0-.01,0,0,0,0,0-.01,0,0,0,0,0,0,0s0,0,0,0h-.01s0,.12,0,.12h.02s0,0,0,0h0s.01,0,.02,0c0,0,.01,0,.02,0,.02,0,.04,0,.05-.02,.02,0,.02-.02,.02-.05,0-.03-.01-.04-.03-.05Zm-.05-.22s-.03,0-.05,0c0,0,0,0,0,0,0,0,0,0,0,0h-.01s0,.11,0,.11h.02s0,0,0,0h0s.04,0,.05-.01c.02,0,.02-.02,.02-.05,0-.02,0-.04-.02-.04Zm0,0s-.03,0-.05,0c0,0,0,0,0,0,0,0,0,0,0,0h-.01s0,.11,0,.11h.02s0,0,0,0h0s.04,0,.05-.01c.02,0,.02-.02,.02-.05,0-.02,0-.04-.02-.04Zm.05,.22s-.04-.01-.06-.01c0,0,0,0-.01,0,0,0,0,0-.01,0,0,0,0,0,0,0s0,0,0,0h-.01s0,.12,0,.12h.02s0,0,0,0h0s.01,0,.02,0c0,0,.01,0,.02,0,.02,0,.04,0,.05-.02,.02,0,.02-.02,.02-.05,0-.03-.01-.04-.03-.05Zm.52-.2s-.01-.05-.03-.05c-.02,0-.04,0-.06,0,0,0,0,0,0,0,0,0,0,0,0,0h-.01s.02,.14,.02,.14h.01s0,0,0,0c0,0,0,0,0,0,.02,0,.04-.01,.06-.02,.02-.01,.02-.03,.02-.06Zm.5-.09h0s-.02,.19-.02,.19l.12-.02-.09-.17Zm1.33-.31s-.05-.08-.09-.09c-.04-.01-.08-.01-.12,0h-.03s.13,.31,.13,.31h.03s.07-.06,.09-.09c.02-.04,.02-.08,0-.13Zm0,0s-.05-.08-.09-.09c-.04-.01-.08-.01-.12,0h-.03s.13,.31,.13,.31h.03s.07-.06,.09-.09c.02-.04,.02-.08,0-.13Zm-1.33,.31h0s-.02,.19-.02,.19l.12-.02-.09-.17Zm-.5,.09s-.01-.05-.03-.05c-.02,0-.04,0-.06,0,0,0,0,0,0,0,0,0,0,0,0,0h-.01s.02,.14,.02,.14h.01s0,0,0,0c0,0,0,0,0,0,.02,0,.04-.01,.06-.02,.02-.01,.02-.03,.02-.06Zm-.52,.2s-.04-.01-.06-.01c0,0,0,0-.01,0,0,0,0,0-.01,0,0,0,0,0,0,0s0,0,0,0h-.01s0,.12,0,.12h.02s0,0,0,0h0s.01,0,.02,0c0,0,.01,0,.02,0,.02,0,.04,0,.05-.02,.02,0,.02-.02,.02-.05,0-.03-.01-.04-.03-.05Zm-.05-.22s-.03,0-.05,0c0,0,0,0,0,0,0,0,0,0,0,0h-.01s0,.11,0,.11h.02s0,0,0,0h0s.04,0,.05-.01c.02,0,.02-.02,.02-.05,0-.02,0-.04-.02-.04Zm0,0s-.03,0-.05,0c0,0,0,0,0,0,0,0,0,0,0,0h-.01s0,.11,0,.11h.02s0,0,0,0h0s.04,0,.05-.01c.02,0,.02-.02,.02-.05,0-.02,0-.04-.02-.04Zm.05,.22s-.04-.01-.06-.01c0,0,0,0-.01,0,0,0,0,0-.01,0,0,0,0,0,0,0s0,0,0,0h-.01s0,.12,0,.12h.02s0,0,0,0h0s.01,0,.02,0c0,0,.01,0,.02,0,.02,0,.04,0,.05-.02,.02,0,.02-.02,.02-.05,0-.03-.01-.04-.03-.05Zm.52-.2s-.01-.05-.03-.05c-.02,0-.04,0-.06,0,0,0,0,0,0,0,0,0,0,0,0,0h-.01s.02,.14,.02,.14h.01s0,0,0,0c0,0,0,0,0,0,.02,0,.04-.01,.06-.02,.02-.01,.02-.03,.02-.06Zm.5-.09h0s-.02,.19-.02,.19l.12-.02-.09-.17Zm1.33-.31s-.05-.08-.09-.09c-.04-.01-.08-.01-.12,0h-.03s.13,.31,.13,.31h.03s.07-.06,.09-.09c.02-.04,.02-.08,0-.13Zm0,0s-.05-.08-.09-.09c-.04-.01-.08-.01-.12,0h-.03s.13,.31,.13,.31h.03s.07-.06,.09-.09c.02-.04,.02-.08,0-.13Zm-1.33,.31h0s-.02,.19-.02,.19l.12-.02-.09-.17Zm-.5,.09s-.01-.05-.03-.05c-.02,0-.04,0-.06,0,0,0,0,0,0,0,0,0,0,0,0,0h-.01s.02,.14,.02,.14h.01s0,0,0,0c0,0,0,0,0,0,.02,0,.04-.01,.06-.02,.02-.01,.02-.03,.02-.06Zm-.52,.2s-.04-.01-.06-.01c0,0,0,0-.01,0,0,0,0,0-.01,0,0,0,0,0,0,0s0,0,0,0h-.01s0,.12,0,.12h.02s0,0,0,0h0s.01,0,.02,0c0,0,.01,0,.02,0,.02,0,.04,0,.05-.02,.02,0,.02-.02,.02-.05,0-.03-.01-.04-.03-.05Zm-.05-.22s-.03,0-.05,0c0,0,0,0,0,0,0,0,0,0,0,0h-.01s0,.11,0,.11h.02s0,0,0,0h0s.04,0,.05-.01c.02,0,.02-.02,.02-.05,0-.02,0-.04-.02-.04Zm0,0s-.03,0-.05,0c0,0,0,0,0,0,0,0,0,0,0,0h-.01s0,.11,0,.11h.02s0,0,0,0h0s.04,0,.05-.01c.02,0,.02-.02,.02-.05,0-.02,0-.04-.02-.04Zm.05,.22s-.04-.01-.06-.01c0,0,0,0-.01,0,0,0,0,0-.01,0,0,0,0,0,0,0s0,0,0,0h-.01s0,.12,0,.12h.02s0,0,0,0h0s.01,0,.02,0c0,0,.01,0,.02,0,.02,0,.04,0,.05-.02,.02,0,.02-.02,.02-.05,0-.03-.01-.04-.03-.05Zm.52-.2s-.01-.05-.03-.05c-.02,0-.04,0-.06,0,0,0,0,0,0,0,0,0,0,0,0,0h-.01s.02,.14,.02,.14h.01s0,0,0,0c0,0,0,0,0,0,.02,0,.04-.01,.06-.02,.02-.01,.02-.03,.02-.06Zm.5-.09h0s-.02,.19-.02,.19l.12-.02-.09-.17Zm1.33-.31s-.05-.08-.09-.09c-.04-.01-.08-.01-.12,0h-.03s.13,.31,.13,.31h.03s.07-.06,.09-.09c.02-.04,.02-.08,0-.13Zm0,0s-.05-.08-.09-.09c-.04-.01-.08-.01-.12,0h-.03s.13,.31,.13,.31h.03s.07-.06,.09-.09c.02-.04,.02-.08,0-.13Zm-1.33,.31h0s-.02,.19-.02,.19l.12-.02-.09-.17Zm-.5,.09s-.01-.05-.03-.05c-.02,0-.04,0-.06,0,0,0,0,0,0,0,0,0,0,0,0,0h-.01s.02,.14,.02,.14h.01s0,0,0,0c0,0,0,0,0,0,.02,0,.04-.01,.06-.02,.02-.01,.02-.03,.02-.06Zm-.52,.2s-.04-.01-.06-.01c0,0,0,0-.01,0,0,0,0,0-.01,0,0,0,0,0,0,0s0,0,0,0h-.01s0,.12,0,.12h.02s0,0,0,0h0s.01,0,.02,0c0,0,.01,0,.02,0,.02,0,.04,0,.05-.02,.02,0,.02-.02,.02-.05,0-.03-.01-.04-.03-.05Zm-.05-.22s-.03,0-.05,0c0,0,0,0,0,0,0,0,0,0,0,0h-.01s0,.11,0,.11h.02s0,0,0,0h0s.04,0,.05-.01c.02,0,.02-.02,.02-.05,0-.02,0-.04-.02-.04Zm1.07-.07h0s-.02,.19-.02,.19l.12-.02-.09-.17Zm1.33-.31s-.05-.08-.09-.09c-.04-.01-.08-.01-.12,0h-.03s.13,.31,.13,.31h.03s.07-.06,.09-.09c.02-.04,.02-.08,0-.13Zm0,0s-.05-.08-.09-.09c-.04-.01-.08-.01-.12,0h-.03s.13,.31,.13,.31h.03s.07-.06,.09-.09c.02-.04,.02-.08,0-.13Zm-1.33,.31h0s-.02,.19-.02,.19l.12-.02-.09-.17Zm1.33-.31s-.05-.08-.09-.09c-.04-.01-.08-.01-.12,0h-.03s.13,.31,.13,.31h.03s.07-.06,.09-.09c.02-.04,.02-.08,0-.13Zm0,0s-.05-.08-.09-.09c-.04-.01-.08-.01-.12,0h-.03s.13,.31,.13,.31h.03s.07-.06,.09-.09c.02-.04,.02-.08,0-.13Z"></path>
        <g>
          <polygon class="cls-3" points="20.63 6.5 20.63 6.5 20.63 6.5 20.63 6.5"></polygon>
          <polygon class="cls-3" points="22.25 6.14 22.25 6.14 22.25 6.14 22.25 6.14"></polygon>
          <path class="cls-3" d="M24.82,8.18l-.02-.08c-.22-.02-.43,0-.61,.08l-.31-.58,.03-.08s-.03-.07-.05-.11h-.07s-.04-.07-.04-.07l.02-.03s0-.08-.02-.1l-.44-.06s-.06,0-.09,0l-.23,.11s0,.12,.07,.1l.27-.13,.26,.03-.21,.1c-.09,.06,0,.15,.08,.1l.18-.09,.13,.23h-1.73l-.08-.18,.29-.09s.04-.08-.03-.12c-.25-.03-.52-.02-.79,.05-.07,.1,0,.18,.2,.24l.23-.03,.08,.16-.21,.49c-.79-.27-1.82,.29-1.58,1.45h.15c.15,.47,.6,.79,1.11,.75,.49-.04,.88-.4,.98-.86l.53,.08v.04s-.05,.03-.05,.03l.04,.13,.19-.05,.09-.02-.04-.12h-.06s0-.02,0-.02c0,0,.02-.01,.02-.02,.25-.19,.18-.48-.03-.55l.95-.9v-.03s-.05-.07-.05-.07l-1.05,.98h-.05s-.74-1.24-.74-1.24h1.69l.14,.26h0s.04,.07,.04,.07l.1,.18c-.48,.24-.74,.77-.58,1.4h.11c.15,.41,.55,.71,1.02,.71,.6,0,1.08-.49,1.08-1.08,0-.53-.39-.98-.89-1.07Zm-2.61,.84c-.07-.26-.25-.47-.48-.59l.04-.08c.26,.13,.46,.37,.53,.66h-.09Zm-.74,.08l.36-.52c.1,.08,.19,.18,.25,.3l-.43,.21-.18,.02Zm.02-.11l.21-.49s.06,.03,.09,.05l-.3,.44Zm.13-.52l-.22,.5,.04-.55c.07,0,.13,.02,.19,.05Zm-.28,.59s-.02,0-.03,0c-.01,0-.03,0-.04,0l-.32-.56c.1-.05,.2-.08,.32-.09,.04,0,.08,0,.12,0l-.04,.64Zm-.44-.53l.32,.56s-.04,.03-.06,.05l-.56-.32c.07-.12,.18-.21,.3-.28Zm-.32,.32l.56,.32s-.02,.04-.02,.06l-.65-.03c0-.13,.05-.25,.11-.36Zm.53,.43s0,0,0,0c0,.02,0,.04,.01,.05l-.58,.28c-.04-.09-.06-.18-.07-.28,0-.03,0-.05,0-.08l.64,.03Zm.03,.1s.03,.03,.04,.05l-.37,.53c-.11-.08-.2-.18-.26-.3l.58-.28Zm.08,.07s.05,.02,.08,.02l-.04,.64c-.15,0-.29-.06-.41-.13l.37-.53Zm.14,.02s.05-.01,.07-.03l.32,.56c-.11,.06-.23,.1-.36,.11-.02,0-.04,0-.07,0l.04-.65Zm.43,.51l-.32-.56s.02-.02,.03-.04l.56,.32c-.07,.11-.16,.21-.27,.28Zm.29-.32l-.5-.29,.57,.08c-.02,.07-.04,.14-.08,.21Zm-.29-.59l.31-.15s.03,.08,.04,.12l-.35,.03Zm-.4,1.2c-.55,.04-1.04-.37-1.08-.92-.04-.55,.37-1.04,.92-1.08,.14-.01,.28,0,.41,.05l-.03,.08c-.12-.04-.24-.06-.37-.05-.5,.04-.88,.48-.84,.99,.04,.5,.48,.88,.99,.84,.41-.03,.74-.33,.83-.72h.09c-.09,.44-.45,.77-.9,.8Zm1.32-1.28l-.23,.02c-.11-.41-.36-.68-.65-.82l.17-.39,.71,1.19Zm1.91,1.28c-.55,0-1-.45-1-1,0-.38,.22-.72,.53-.89l.04,.08h0c-.29,.15-.49,.46-.49,.81,0,.51,.41,.92,.92,.92s.92-.41,.92-.92-.41-.92-.92-.92c-.11,0-.22,.02-.32,.06l-.04-.08c.11-.04,.24-.07,.37-.07,.55,0,1,.45,1,1s-.45,1-1,1Zm-.39-1.75l.29,.56s-.03,.02-.05,.04l-.52-.36c.08-.1,.17-.18,.28-.24Zm-.31,.28l.52,.36s-.02,.04-.03,.06l-.63-.08c.02-.12,.07-.24,.13-.34Zm-.14,.39l.63,.08s0,0,0,0c0,.02,0,.04,0,.06l-.59,.23c-.03-.09-.05-.18-.05-.28,0-.03,0-.05,0-.08Zm.65,.18s.02,.04,.04,.05l-.4,.49c-.1-.08-.18-.19-.23-.31l.59-.23Zm.08,.08s.05,.03,.08,.03l-.09,.62c-.15-.02-.28-.08-.39-.16l.4-.49Zm.13,.03s.05,0,.07-.02l.28,.56c-.11,.06-.24,.09-.37,.09-.02,0-.05,0-.07,0l.09-.63Zm.4,.52l-.29-.56s.03-.02,.04-.04l.52,.36c-.07,.1-.16,.19-.27,.25Zm.3-.29l-.52-.36s0-.02,.01-.04l.63,.08c-.02,.12-.06,.22-.12,.32Zm.12-.37l-.63-.08s0-.03,0-.05l.59-.23c.03,.09,.05,.18,.05,.28,0,.03,0,.05,0,.08Zm-.65-.17s-.02-.03-.03-.05l.4-.49c.1,.08,.18,.19,.23,.31l-.59,.23Zm-.07-.08s-.02-.01-.04-.02l.09-.63c.13,.03,.24,.08,.34,.16l-.4,.49Zm-.08-.03s-.02,0-.03,0c0,0,0,0,0,0h0s-.29-.58-.29-.58c.09-.04,.19-.05,.3-.05,.04,0,.08,0,.12,0l-.09,.62Z"></path>
        </g>
      </g>
    </g>
  </g>
</svg>